<?xml version="1.0" encoding="utf-8"?>
<!-- Generator: Adobe Illustrator 16.0.0, SVG Export Plug-In . SVG Version: 6.00 Build 0)  -->
<!DOCTYPE svg PUBLIC "-//W3C//DTD SVG 1.1//EN" "http://www.w3.org/Graphics/SVG/1.1/DTD/svg11.dtd">
<svg version="1.1" xmlns="http://www.w3.org/2000/svg" xmlns:xlink="http://www.w3.org/1999/xlink" x="0px" y="0px" width="360px"
	 height="115px" viewBox="0 0 360 115" enable-background="new 0 0 360 115" xml:space="preserve">
<g id="Layer_2">
</g>
<g id="Layer_1">
	<g>
		<defs>
			<rect id="SVGID_1_" x="-197" y="-391.28" width="816.89" height="595.28"/>
		</defs>
		<clipPath id="SVGID_2_">
			<use xlink:href="#SVGID_1_"  overflow="visible"/>
		</clipPath>
		<path clip-path="url(#SVGID_2_)" fill="#FFFFFF" d="M96.925,102.417l-2.288,3.951c-0.152,0.282-0.368,0.519-0.734,0.519
			c-0.41,0-0.734-0.323-0.734-0.733c0-0.173,0.064-0.324,0.129-0.433l7.687-13.214c0.152-0.259,0.367-0.496,0.757-0.496
			c0.366,0,0.582,0.237,0.647,0.496l2.894,13.322c0.021,0.107,0.043,0.238,0.043,0.302c0,0.433-0.281,0.756-0.777,0.756
			c-0.367,0-0.627-0.216-0.691-0.497l-0.906-3.973H96.925z M101.33,94.472l-3.715,6.606h5.117L101.33,94.472z"/>
		<path clip-path="url(#SVGID_2_)" fill="#FFFFFF" d="M109.641,99.416c0,2.073,4.879,1.425,4.879,4.318
			c0,2.181-1.662,3.239-4.123,3.239c-1.662,0-2.957-0.821-3.52-1.642c-0.064-0.107-0.086-0.216-0.086-0.324
			c0-0.345,0.281-0.626,0.626-0.626c0.13,0,0.324,0.044,0.476,0.217c0.562,0.67,1.424,1.058,2.633,1.058
			c1.361,0,2.592-0.475,2.592-1.706c0-1.899-4.9-1.339-4.9-4.297c0-2.05,1.618-3.022,3.756-3.022c1.426,0,2.635,0.714,3.088,1.446
			c0.064,0.109,0.107,0.216,0.107,0.346c0,0.347-0.279,0.626-0.626,0.626c-0.108,0-0.28-0.021-0.453-0.194
			c-0.518-0.518-1.166-0.906-2.288-0.906C110.742,97.948,109.641,98.293,109.641,99.416"/>
		<path clip-path="url(#SVGID_2_)" fill="#FFFFFF" d="M116.441,103.303c0-3.368,1.598-6.692,5.57-6.692
			c2.354,0,3.734,1.187,3.734,3.691c0,3.368-1.596,6.693-5.569,6.693C117.822,106.995,116.441,105.807,116.441,103.303
			 M124.344,100.474c0-1.813-0.907-2.611-2.548-2.611c-2.851,0-3.951,2.591-3.951,5.268c0,1.814,0.907,2.613,2.548,2.613
			C123.242,105.743,124.344,103.152,124.344,100.474"/>
		<path clip-path="url(#SVGID_2_)" fill="#FFFFFF" d="M132.526,96.609c1.899,0,2.785,1.122,3.044,1.576
			c0.064,0.108,0.087,0.237,0.087,0.323c0,0.346-0.259,0.627-0.604,0.627c-0.217,0-0.346-0.065-0.519-0.259
			c-0.345-0.39-0.864-1.016-2.245-1.016c-2.656,0-3.865,2.269-3.865,5.031c0,2.008,0.843,2.85,2.461,2.85
			c1.209,0,1.923-0.432,2.613-0.906c0.194-0.129,0.303-0.151,0.432-0.151c0.324,0,0.604,0.259,0.604,0.605
			c0,0.216-0.087,0.431-0.389,0.646c-0.734,0.52-1.792,1.058-3.476,1.058c-2.354,0-3.649-1.209-3.649-3.929
			C127.021,99.265,128.985,96.609,132.526,96.609"/>
		<path clip-path="url(#SVGID_2_)" fill="#FFFFFF" d="M137.901,106.195c-0.063,0.389-0.388,0.691-0.798,0.691
			c-0.411,0-0.648-0.303-0.583-0.691l1.554-8.765c0.064-0.39,0.389-0.692,0.799-0.692s0.648,0.303,0.584,0.692L137.901,106.195z
			 M140.256,93.63c0,0.669-0.367,1.079-0.994,1.079c-0.453,0-0.713-0.236-0.713-0.604c0-0.669,0.367-1.079,0.994-1.079
			C139.996,93.026,140.256,93.264,140.256,93.63"/>
		<path clip-path="url(#SVGID_2_)" fill="#FFFFFF" d="M144.228,106.994c-2.332,0-3.519-1.511-3.519-3.647
			c0-3.931,2.375-6.737,5.742-6.737c0.993,0,1.965,0.302,2.678,0.929l0.021-0.108c0.086-0.389,0.345-0.691,0.799-0.691
			c0.432,0,0.646,0.324,0.583,0.691l-1.555,8.766c-0.065,0.39-0.388,0.692-0.8,0.692c-0.409,0-0.625-0.303-0.561-0.692l0.26-1.382
			C147.143,106.175,145.846,106.994,144.228,106.994 M144.443,105.742c2.375,0,3.648-2.224,4.038-4.47l0.41-2.438
			c-0.583-0.583-1.47-1.016-2.548-1.016c-2.375,0-4.254,2.159-4.254,5.313C142.09,104.556,142.715,105.742,144.443,105.742"/>
		<path clip-path="url(#SVGID_2_)" fill="#FFFFFF" d="M157.289,96.609c1.9,0,2.785,1.122,3.044,1.576
			c0.065,0.108,0.087,0.237,0.087,0.323c0,0.346-0.259,0.627-0.605,0.627c-0.215,0-0.344-0.065-0.518-0.259
			c-0.345-0.39-0.863-1.016-2.246-1.016c-2.654,0-3.865,2.269-3.865,5.031c0,2.008,0.844,2.85,2.463,2.85
			c1.209,0,1.922-0.432,2.613-0.906c0.193-0.129,0.301-0.151,0.43-0.151c0.324,0,0.605,0.259,0.605,0.605
			c0,0.216-0.087,0.431-0.389,0.646c-0.734,0.52-1.792,1.058-3.477,1.058c-2.353,0-3.648-1.209-3.648-3.929
			C151.783,99.265,153.748,96.609,157.289,96.609"/>
		<path clip-path="url(#SVGID_2_)" fill="#FFFFFF" d="M162.664,106.195c-0.064,0.389-0.389,0.691-0.798,0.691
			c-0.411,0-0.647-0.303-0.583-0.691l1.554-8.765c0.065-0.39,0.39-0.692,0.8-0.692c0.409,0,0.647,0.303,0.582,0.692L162.664,106.195
			z M165.018,93.63c0,0.669-0.367,1.079-0.992,1.079c-0.454,0-0.713-0.236-0.713-0.604c0-0.669,0.367-1.079,0.994-1.079
			C164.76,93.026,165.018,93.264,165.018,93.63"/>
		<path clip-path="url(#SVGID_2_)" fill="#FFFFFF" d="M165.471,103.303c0-3.368,1.599-6.693,5.571-6.693
			c2.353,0,3.735,1.188,3.735,3.692c0,3.369-1.598,6.693-5.571,6.693C166.854,106.995,165.471,105.807,165.471,103.303
			 M173.373,100.474c0-1.813-0.906-2.612-2.547-2.612c-2.852,0-3.952,2.592-3.952,5.27c0,1.813,0.907,2.612,2.548,2.612
			C172.271,105.743,173.373,103.151,173.373,100.474 M170.329,94.817l2.246-2.332c0.237-0.236,0.562-0.236,0.842,0.064
			c0.28,0.303,0.216,0.604-0.044,0.843l-2.418,2.051c-0.216,0.194-0.432,0.28-0.669,0.043
			C170.048,95.25,170.135,95.012,170.329,94.817"/>
		<path clip-path="url(#SVGID_2_)" fill="#FFFFFF" d="M185.398,99.265c0,0.347-0.043,0.82-0.107,1.166l-1.016,5.766
			c-0.063,0.388-0.388,0.69-0.799,0.69c-0.41,0-0.646-0.303-0.582-0.69l0.971-5.484c0.065-0.367,0.108-0.756,0.108-1.058
			c0-1.146-0.626-1.814-2.202-1.814c-2.138,0-3.088,1.296-3.39,3.023l-0.95,5.333c-0.064,0.388-0.389,0.69-0.799,0.69
			s-0.648-0.303-0.583-0.69l1.556-8.767c0.063-0.389,0.387-0.69,0.797-0.69c0.39,0,0.648,0.302,0.584,0.69l-0.129,0.69
			c0.518-0.82,1.662-1.51,3.129-1.51C184.492,96.61,185.398,97.797,185.398,99.265"/>
		<path clip-path="url(#SVGID_2_)" fill="#FFFFFF" d="M202.261,99.265c0,0.347-0.043,0.82-0.108,1.166l-1.015,5.766
			c-0.064,0.388-0.389,0.69-0.799,0.69s-0.647-0.303-0.583-0.69l0.972-5.484c0.065-0.367,0.108-0.756,0.108-1.058
			c0-1.146-0.626-1.814-2.202-1.814c-2.138,0-3.088,1.296-3.39,3.023l-0.95,5.333c-0.065,0.388-0.39,0.69-0.8,0.69
			s-0.647-0.303-0.582-0.69l1.555-8.767c0.064-0.389,0.388-0.69,0.798-0.69c0.39,0,0.647,0.302,0.583,0.69l-0.129,0.69
			c0.518-0.82,1.662-1.51,3.13-1.51C201.354,96.61,202.261,97.797,202.261,99.265"/>
		<path clip-path="url(#SVGID_2_)" fill="#FFFFFF" d="M209.406,96.609c2.159,0,3.174,1.102,3.174,2.354
			c0,2.288-2.245,3.497-7.405,3.497c-0.064,0.323-0.064,0.54-0.064,0.67c0,1.964,0.928,2.59,2.655,2.59
			c1.102,0,1.965-0.432,2.634-0.907c0.151-0.107,0.26-0.15,0.41-0.15c0.346,0,0.627,0.26,0.627,0.604
			c0,0.281-0.173,0.432-0.324,0.562c-0.863,0.712-2.051,1.165-3.605,1.165c-2.375,0-3.778-1.188-3.778-3.691
			C203.729,99.352,205.886,96.609,209.406,96.609 M211.198,99.114c0-0.627-0.562-1.253-2.008-1.253c-2.139,0-3.52,1.599-3.864,3.478
			C209.32,101.339,211.198,100.495,211.198,99.114"/>
		<path clip-path="url(#SVGID_2_)" fill="#FFFFFF" d="M214.048,106.605c-0.172,0.194-0.389,0.281-0.583,0.281
			c-0.389,0-0.689-0.302-0.689-0.691c0-0.193,0.063-0.345,0.193-0.496l3.735-4.06l-2.224-3.908
			c-0.044-0.086-0.065-0.172-0.065-0.302c0-0.388,0.303-0.691,0.691-0.691c0.28,0,0.518,0.174,0.604,0.347l1.943,3.604l3.26-3.67
			c0.151-0.173,0.324-0.281,0.562-0.281c0.389,0,0.691,0.304,0.691,0.691c0,0.259-0.108,0.389-0.217,0.519l-3.563,3.778l2.246,4.167
			c0.043,0.086,0.064,0.194,0.064,0.302c0,0.39-0.302,0.691-0.69,0.691c-0.281,0-0.497-0.13-0.604-0.345l-1.965-3.822
			L214.048,106.605z"/>
		<path clip-path="url(#SVGID_2_)" fill="#FFFFFF" d="M222.576,103.303c0-3.368,1.598-6.692,5.57-6.692
			c2.353,0,3.735,1.187,3.735,3.691c0,3.368-1.598,6.693-5.571,6.693C223.957,106.995,222.576,105.807,222.576,103.303
			 M230.479,100.474c0-1.813-0.907-2.611-2.548-2.611c-2.851,0-3.951,2.591-3.951,5.268c0,1.814,0.906,2.613,2.548,2.613
			C229.377,105.743,230.479,103.152,230.479,100.474"/>
		<path clip-path="url(#SVGID_2_)" fill="#FFFFFF" d="M235.508,99.416c0,2.073,4.88,1.425,4.88,4.318
			c0,2.181-1.662,3.239-4.124,3.239c-1.662,0-2.958-0.821-3.52-1.642c-0.064-0.107-0.086-0.216-0.086-0.324
			c0-0.345,0.28-0.626,0.626-0.626c0.13,0,0.324,0.044,0.476,0.217c0.561,0.67,1.425,1.058,2.634,1.058
			c1.36,0,2.591-0.475,2.591-1.706c0-1.899-4.901-1.339-4.901-4.297c0-2.05,1.619-3.022,3.757-3.022
			c1.426,0,2.635,0.714,3.088,1.446c0.064,0.109,0.107,0.216,0.107,0.346c0,0.347-0.28,0.626-0.626,0.626
			c-0.107,0-0.28-0.021-0.453-0.194c-0.519-0.518-1.166-0.906-2.289-0.906C236.609,97.948,235.508,98.293,235.508,99.416"/>
		<path clip-path="url(#SVGID_2_)" fill="#FFFFFF" d="M250.966,106.994c-2.331,0-3.519-1.511-3.519-3.647
			c0-3.931,2.375-6.737,5.743-6.737c0.993,0,1.965,0.302,2.677,0.929l0.021-0.108c0.087-0.389,0.346-0.691,0.799-0.691
			c0.432,0,0.648,0.324,0.583,0.691l-1.555,8.766c-0.064,0.39-0.389,0.692-0.799,0.692s-0.626-0.303-0.561-0.692l0.259-1.382
			C253.881,106.175,252.586,106.994,250.966,106.994 M251.182,105.742c2.375,0,3.649-2.224,4.038-4.47l0.41-2.438
			c-0.583-0.583-1.469-1.016-2.548-1.016c-2.375,0-4.254,2.159-4.254,5.313C248.828,104.556,249.455,105.742,251.182,105.742"/>
		<path clip-path="url(#SVGID_2_)" fill="#FFFFFF" d="M261.286,98.38c0.604-0.993,1.813-1.728,3.303-1.728
			c0.324,0,0.562,0.259,0.562,0.583c0,0.411-0.389,0.756-0.799,0.756c-1.986,0-3.238,1.382-3.584,3.368l-0.863,4.836
			c-0.065,0.389-0.411,0.691-0.799,0.691c-0.389,0-0.648-0.303-0.583-0.691l1.554-8.765c0.064-0.39,0.389-0.692,0.799-0.692
			c0.389,0,0.648,0.303,0.583,0.692L261.286,98.38z"/>
		<path clip-path="url(#SVGID_2_)" fill="#FFFFFF" d="M268.194,94.645c0.063-0.367,0.432-0.69,0.82-0.69
			c0.409,0,0.626,0.323,0.562,0.69l-0.411,2.268h1.425c0.324,0,0.54,0.237,0.54,0.54c0,0.431-0.366,0.756-0.776,0.756h-1.383
			l-1.058,5.958c-0.021,0.108-0.043,0.282-0.043,0.389c0,0.692,0.41,1.036,1.036,1.036c0.324,0,0.561,0.239,0.561,0.562
			c0,0.41-0.388,0.734-0.798,0.734c-1.468,0-2.203-0.842-2.203-2.073c0-0.193,0.022-0.432,0.065-0.647l1.059-5.958h-0.864
			c-0.324,0-0.54-0.238-0.54-0.541c0-0.432,0.367-0.755,0.777-0.755h0.82L268.194,94.645z"/>
		<path clip-path="url(#SVGID_2_)" fill="#FFFFFF" d="M273.008,106.195c-0.064,0.39-0.41,0.691-0.799,0.691
			s-0.648-0.302-0.583-0.691l1.555-8.766c0.065-0.388,0.41-0.691,0.798-0.691c0.39,0,0.649,0.304,0.583,0.691L273.008,106.195z
			 M273.332,94.817l2.245-2.332c0.238-0.236,0.562-0.236,0.843,0.064c0.28,0.303,0.216,0.604-0.043,0.843l-2.419,2.051
			c-0.216,0.194-0.432,0.28-0.669,0.043C273.052,95.25,273.138,95.012,273.332,94.817"/>
		<path clip-path="url(#SVGID_2_)" fill="#FFFFFF" d="M278.168,99.416c0,2.073,4.88,1.425,4.88,4.318
			c0,2.181-1.662,3.239-4.124,3.239c-1.662,0-2.958-0.821-3.52-1.642c-0.064-0.107-0.086-0.216-0.086-0.324
			c0-0.345,0.28-0.626,0.626-0.626c0.13,0,0.324,0.044,0.476,0.217c0.562,0.67,1.425,1.058,2.634,1.058
			c1.36,0,2.591-0.475,2.591-1.706c0-1.899-4.901-1.339-4.901-4.297c0-2.05,1.619-3.022,3.757-3.022
			c1.426,0,2.635,0.714,3.088,1.446c0.064,0.109,0.107,0.216,0.107,0.346c0,0.347-0.28,0.626-0.626,0.626
			c-0.107,0-0.28-0.021-0.453-0.194c-0.519-0.518-1.166-0.906-2.289-0.906C279.27,97.948,278.168,98.293,278.168,99.416"/>
		<path clip-path="url(#SVGID_2_)" fill="#FFFFFF" d="M287.538,94.645c0.064-0.367,0.432-0.69,0.82-0.69
			c0.409,0,0.626,0.323,0.562,0.69l-0.411,2.268h1.425c0.324,0,0.54,0.237,0.54,0.54c0,0.431-0.366,0.756-0.776,0.756h-1.383
			l-1.058,5.958c-0.021,0.108-0.043,0.282-0.043,0.389c0,0.692,0.41,1.036,1.036,1.036c0.324,0,0.562,0.239,0.562,0.562
			c0,0.41-0.389,0.734-0.799,0.734c-1.468,0-2.202-0.842-2.202-2.073c0-0.193,0.021-0.432,0.064-0.647l1.059-5.958h-0.864
			c-0.324,0-0.54-0.238-0.54-0.541c0-0.432,0.367-0.755,0.777-0.755h0.82L287.538,94.645z"/>
		<path clip-path="url(#SVGID_2_)" fill="#FFFFFF" d="M292.352,106.195c-0.064,0.389-0.389,0.691-0.799,0.691
			c-0.411,0-0.647-0.303-0.583-0.691l1.555-8.765c0.065-0.39,0.389-0.692,0.799-0.692s0.648,0.303,0.583,0.692L292.352,106.195z
			 M294.705,93.63c0,0.669-0.367,1.079-0.993,1.079c-0.453,0-0.712-0.236-0.712-0.604c0-0.669,0.367-1.079,0.993-1.079
			C294.446,93.026,294.705,93.264,294.705,93.63"/>
		<path clip-path="url(#SVGID_2_)" fill="#FFFFFF" d="M300.664,96.609c1.9,0,2.786,1.122,3.045,1.576
			c0.064,0.108,0.086,0.237,0.086,0.323c0,0.346-0.259,0.627-0.604,0.627c-0.216,0-0.346-0.065-0.518-0.259
			c-0.346-0.39-0.864-1.016-2.246-1.016c-2.655,0-3.864,2.269-3.864,5.031c0,2.008,0.842,2.85,2.461,2.85
			c1.209,0,1.922-0.432,2.612-0.906c0.194-0.129,0.303-0.151,0.433-0.151c0.324,0,0.604,0.259,0.604,0.605
			c0,0.216-0.087,0.431-0.389,0.646c-0.734,0.52-1.792,1.058-3.476,1.058c-2.354,0-3.649-1.209-3.649-3.929
			C295.159,99.265,297.123,96.609,300.664,96.609"/>
		<path clip-path="url(#SVGID_2_)" fill="#FFFFFF" d="M304.68,103.303c0-3.368,1.598-6.692,5.57-6.692
			c2.353,0,3.735,1.187,3.735,3.691c0,3.368-1.598,6.693-5.571,6.693C306.061,106.995,304.68,105.807,304.68,103.303
			 M312.582,100.474c0-1.813-0.907-2.611-2.548-2.611c-2.851,0-3.951,2.591-3.951,5.268c0,1.814,0.906,2.613,2.548,2.613
			C311.479,105.743,312.582,103.152,312.582,100.474"/>
		<path clip-path="url(#SVGID_2_)" fill="#FFFFFF" d="M317.611,99.416c0,2.073,4.88,1.425,4.88,4.318
			c0,2.181-1.662,3.239-4.124,3.239c-1.662,0-2.958-0.821-3.52-1.642c-0.064-0.107-0.086-0.216-0.086-0.324
			c0-0.345,0.28-0.626,0.626-0.626c0.13,0,0.324,0.044,0.476,0.217c0.561,0.67,1.425,1.058,2.634,1.058
			c1.36,0,2.591-0.475,2.591-1.706c0-1.899-4.901-1.339-4.901-4.297c0-2.05,1.619-3.022,3.757-3.022
			c1.426,0,2.635,0.714,3.088,1.446c0.064,0.109,0.107,0.216,0.107,0.346c0,0.347-0.28,0.626-0.626,0.626
			c-0.107,0-0.28-0.021-0.453-0.194c-0.519-0.518-1.166-0.906-2.289-0.906C318.713,97.948,317.611,98.293,317.611,99.416"/>
		<path clip-path="url(#SVGID_2_)" fill="#208FCD" d="M46.336,9.713c4.054,0.224,5.468,4.685,3.146,9.91L39.356,42.404
			c-2.325,5.225-5.642,5.041-7.371-0.411l-7.539-23.76c-1.731-5.452,0.17-9.729,4.223-9.505L46.336,9.713z"/>
		<path clip-path="url(#SVGID_2_)" fill="#208FCD" d="M76.301,38.973c2.611,2.543,0.938,6.396-3.719,8.563l-20.293,9.441
			c-4.655,2.165-6.789,0.084-4.745-4.627l8.918-20.526c2.046-4.709,5.854-6.483,8.465-3.94L76.301,38.973z"/>
		<path clip-path="url(#SVGID_2_)" fill="#208FCD" d="M79.17,76.996c0.047,3.02-3.189,4.305-7.19,2.854l-17.438-6.316
			c-4.001-1.449-4.039-3.92-0.084-5.491l17.24-6.845c3.953-1.57,7.229-0.384,7.274,2.635L79.17,76.996z"/>
		<path clip-path="url(#SVGID_2_)" fill="#208FCD" d="M62.947,103.627c-1.417,2.04-4.195,1.347-6.171-1.542l-8.619-12.589
			c-1.978-2.889-0.817-4.557,2.579-3.708l14.799,3.7c3.395,0.849,5.014,3.211,3.596,5.25L62.947,103.627z"/>
		<path clip-path="url(#SVGID_2_)" fill="#208FCD" d="M31.682,111.12c-2.155,0.013-3.049-2.308-1.984-5.151l4.639-12.396
			c1.064-2.845,2.827-2.853,3.919-0.02l4.755,12.353c1.092,2.833,0.221,5.16-1.934,5.173L31.682,111.12z"/>
		<path clip-path="url(#SVGID_2_)" fill="#208FCD" d="M10.82,94.556c-1.061-1.265-0.13-2.929,2.069-3.691l9.586-3.327
			c2.199-0.763,3.067,0.275,1.928,2.304l-4.964,8.851c-1.137,2.029-2.937,2.654-3.998,1.389L10.82,94.556z"/>
		<path clip-path="url(#SVGID_2_)" fill="#208FCD" d="M16.762,68.037c0.58-1.172,2.081-1.024,3.335,0.324l5.462,5.891
			c1.252,1.349,0.778,2.309-1.057,2.13l-7.993-0.78c-1.833-0.179-2.86-1.284-2.28-2.455L16.762,68.037z"/>
		<path clip-path="url(#SVGID_2_)" fill="#FFFFFF" d="M139.465,68.033c1.301,0.435,2.967,0.651,4.993,0.651l-1.448,11.29
			c-1.592,0.363-3.619,0.507-6.007,0.507c-6.296,0-8.684-1.229-9.843-6.079l-1.085-4.56h-17.442l-4.414,10.06H90.178l24.246-50.806
			l13.678-1.736L139.465,68.033z M113.41,58.986h10.132l-3.474-15.053L113.41,58.986z"/>
		<polygon clip-path="url(#SVGID_2_)" fill="#FFFFFF" points="184.629,28.518 197.944,28.518 191.286,79.903 178.477,79.903 
			162.482,51.244 158.863,79.903 145.547,79.903 152.205,29.097 165.088,27.361 181.154,56.744 		"/>
		<path clip-path="url(#SVGID_2_)" fill="#FFFFFF" d="M211.773,65.428c0.36,3.185,2.314,4.777,5.717,4.777
			c4.125,0,7.744-0.941,10.855-2.896l1.882,9.408c-1.158,0.87-3.185,1.738-6.007,2.678c-2.822,0.942-5.863,1.375-9.119,1.375
			c-10.929,0-16.429-6.079-16.429-16.138c0-5.936,1.81-10.784,5.5-14.547c3.692-3.765,8.396-5.646,14.112-5.646
			c9.771,0,14.692,5.501,14.692,14.693c0,1.808-0.217,3.908-0.651,6.295H211.773z M220.023,58.986
			c0.217-3.184-0.869-4.775-3.113-4.775c-2.604,0-4.197,1.592-4.848,4.775H220.023z"/>
		<path clip-path="url(#SVGID_2_)" fill="#FFFFFF" d="M259.687,62.533l4.704,7.89c1.013,0.289,2.533,0.433,4.632,0.433l-1.303,9.119
			c-2.244,0.435-4.776,0.652-7.454,0.652c-3.257,0-4.705-0.725-5.935-3.402l-3.112-6.586l-6.225,9.264h-13.245l12.884-16.212
			l-5.211-7.887c-1.158-0.291-2.533-0.436-4.197-0.436l1.157-9.843c1.882-0.651,4.126-1.013,6.658-1.013
			c3.257,0,4.705,0.724,5.935,2.823l4.198,7.309l7.237-10.205l12.81,1.014L259.687,62.533z"/>
		<path clip-path="url(#SVGID_2_)" fill="#FFFFFF" d="M317.442,68.033c1.303,0.435,2.968,0.651,4.994,0.651l-1.447,11.29
			c-1.593,0.363-3.619,0.507-6.008,0.507c-6.296,0-8.685-1.229-9.842-6.079l-1.086-4.56h-17.441l-4.415,10.06h-14.04l24.244-50.806
			l13.679-1.736L317.442,68.033z M291.389,58.986h10.132l-3.474-15.053L291.389,58.986z"/>
		<path clip-path="url(#SVGID_2_)" fill="#FFFFFF" d="M350.521,45.019l-2.388,12.015c-0.869-0.362-2.026-0.578-3.475-0.578
			c-3.185,0-5.211,2.677-6.007,8.033l-2.027,15.414h-13.026l3.185-24.244c-1.085-0.218-2.171-0.362-3.257-0.362l1.593-9.842
			c1.736-0.652,3.763-1.015,6.151-1.015c3.546,0,6.007,1.737,7.31,5.211c2.316-3.474,4.994-5.211,8.105-5.211
			C348.35,44.439,349.58,44.658,350.521,45.019"/>
	</g>
</g>
</svg>
